<svg width="1440" height="1024" viewBox="0 0 1440 1024" fill="none" xmlns="http://www.w3.org/2000/svg">
<g clip-path="url(#clip0_2_6)">
<ellipse cx="163" cy="314" rx="4" ry="3" fill="#FFECEC"/>
<ellipse cx="103" cy="92" rx="4" ry="3" fill="#FFECEC"/>
<ellipse cx="547" cy="126" rx="4" ry="3" fill="#FFECEC"/>
<ellipse cx="365" cy="220" rx="4" ry="3" fill="#FFECEC"/>
<ellipse cx="615" cy="448" rx="4" ry="3" fill="#FFECEC"/>
<ellipse cx="555" cy="226" rx="4" ry="3" fill="#FFECEC"/>
<ellipse cx="999" cy="260" rx="4" ry="3" fill="#FFECEC"/>
<ellipse cx="817" cy="354" rx="4" ry="3" fill="#FFECEC"/>
<ellipse cx="189" cy="710" rx="4" ry="3" fill="#FFECEC"/>
<ellipse cx="211.996" cy="351.103" rx="4" ry="3" transform="rotate(19.1161 211.996 351.103)" fill="#FFECEC"/>
<ellipse cx="620.378" cy="528.631" rx="4" ry="3" transform="rotate(19.1161 620.378 528.631)" fill="#FFECEC"/>
<ellipse cx="417.631" cy="557.845" rx="4" ry="3" transform="rotate(19.1161 417.631 557.845)" fill="#FFECEC"/>
<ellipse cx="579.179" cy="855.143" rx="4" ry="3" transform="rotate(19.1161 579.179 855.143)" fill="#FFECEC"/>
<ellipse cx="595.189" cy="625.736" rx="4" ry="3" transform="rotate(19.1161 595.189 625.736)" fill="#FFECEC"/>
<ellipse cx="1003.57" cy="803.264" rx="4" ry="3" transform="rotate(19.1161 1003.57 803.264)" fill="#FFECEC"/>
<ellipse cx="800.823" cy="832.478" rx="4" ry="3" transform="rotate(19.1161 800.823 832.478)" fill="#FFECEC"/>
<ellipse cx="1095" cy="64" rx="4" ry="3" fill="#FFECEC"/>
<ellipse cx="1357" cy="192" rx="4" ry="3" fill="#FFECEC"/>
<ellipse cx="729" cy="548" rx="4" ry="3" fill="#FFECEC"/>
<ellipse cx="751.996" cy="189.103" rx="4" ry="3" transform="rotate(19.1161 751.996 189.103)" fill="#FFECEC"/>
<ellipse cx="1160.38" cy="366.631" rx="4" ry="3" transform="rotate(19.1161 1160.38 366.631)" fill="#FFECEC"/>
<ellipse cx="957.631" cy="395.845" rx="4" ry="3" transform="rotate(19.1161 957.631 395.845)" fill="#FFECEC"/>
<ellipse cx="1119.18" cy="693.143" rx="4" ry="3" transform="rotate(19.1161 1119.18 693.143)" fill="#FFECEC"/>
<ellipse cx="831.998" cy="618.607" rx="4" ry="3" transform="rotate(58.9847 831.998 618.607)" fill="#FFECEC"/>
<ellipse cx="406.683" cy="432.533" rx="4" ry="3" transform="rotate(78.1008 406.683 432.533)" fill="#FFECEC"/>
<ellipse cx="368.76" cy="902.45" rx="4" ry="3" transform="rotate(78.1008 368.76 902.45)" fill="#FFECEC"/>
<ellipse cx="1049.44" cy="599.889" rx="4" ry="3" transform="rotate(58.9847 1049.44 599.889)" fill="#FFECEC"/>
<ellipse cx="522.706" cy="944.788" rx="4" ry="3" transform="rotate(78.1008 522.706 944.788)" fill="#FFECEC"/>
<ellipse cx="1135.19" cy="463.736" rx="4" ry="3" transform="rotate(19.1161 1135.19 463.736)" fill="#FFECEC"/>
<ellipse cx="1340.82" cy="670.478" rx="4" ry="3" transform="rotate(19.1161 1340.82 670.478)" fill="#FFECEC"/>
<ellipse cx="1040.42" cy="826.76" rx="4" ry="3" transform="rotate(23.6944 1040.42 826.76)" fill="#FFECEC"/>
<ellipse cx="835.991" cy="839.698" rx="4" ry="3" transform="rotate(23.6944 835.991 839.698)" fill="#FFECEC"/>
<ellipse cx="117.868" cy="913.32" rx="4" ry="3" transform="rotate(23.6944 117.868 913.32)" fill="#FFECEC"/>
<ellipse cx="283.152" cy="593.919" rx="4" ry="3" transform="rotate(42.8105 283.152 593.919)" fill="#FFECEC"/>
<ellipse cx="585.767" cy="920.593" rx="4" ry="3" transform="rotate(42.8105 585.767 920.593)" fill="#FFECEC"/>
<ellipse cx="388.371" cy="865.869" rx="4" ry="3" transform="rotate(42.8105 388.371 865.869)" fill="#FFECEC"/>
</g>
<defs>
<clipPath id="clip0_2_6">
<rect width="1440" height="1024" fill="white"/>
</clipPath>
</defs>
</svg>
